<svg width="416" height="706" viewBox="0 0 416 706" fill="none" xmlns="http://www.w3.org/2000/svg">
<path d="M351.5 545V96.5H63.5V545H351.5ZM207.5 672.5C220.5 672.5 231.75 667.75 241.25 658.25C250.75 648.75 255.5 637.5 255.5 624.5C255.5 611.5 250.75 600.25 241.25 590.75C231.75 581.25 220.5 576.5 207.5 576.5C194.5 576.5 183.25 581.25 173.75 590.75C164.25 600.25 159.5 611.5 159.5 624.5C159.5 637.5 164.25 648.75 173.75 658.25C183.25 667.75 194.5 672.5 207.5 672.5ZM336.5 0.5C358.5 0.5 377.25 8.5 392.75 24.5C408.25 40.5 416 59.5 416 81.5V624.5C416 646.5 408.25 665.5 392.75 681.5C377.25 697.5 358.5 705.5 336.5 705.5H80C58 705.5 39.25 697.5 23.75 681.5C8.25 665.5 0.5 646.5 0.5 624.5V81.5C0.5 59.5 8.25 40.5 23.75 24.5C39.25 8.5 58 0.5 80 0.5H336.5Z" fill="#C4A162"/>
</svg>
